<svg xmlns="http://www.w3.org/2000/svg" xmlns:xlink="http://www.w3.org/1999/xlink" viewBox="0 0 80 80" fill="#FFFFFF">
  <path d="M42.746094 8.9980469C37.212647 9.1245015 30.29028 12.11903 24.337891 16.814453C23.04626 17.83333 21.801886 18.938528 20.630859 20.117188C17.951803 19.600905 16.037109 19.59375 16.037109 19.59375 A 1.0001 1.0001 0 1 0 16.037109 21.59375C16.037109 21.59375 17.22916 21.607249 19.003906 21.871094C14.86831 26.598666 12 32.331608 12 38.560547C12 55.275382 18.162109 68.914062 18.162109 68.914062 A 1.0001 1.0001 0 1 0 19.984375 68.091797C19.984375 68.091797 18.861969 65.514248 17.595703 61.396484C18.367604 62.379212 19.234092 63.42989 20.267578 64.542969 A 1.0001 1.0001 0 1 0 21.732422 63.181641C18.39096 59.582842 16.386719 56.259766 16.386719 56.259766 A 1.0001 1.0001 0 0 0 16.111328 55.955078C14.961106 51.061695 14 45.05499 14 38.560547C14 32.583236 16.99319 26.930924 21.304688 22.3125C24.597081 23.082566 28.766488 24.686214 31.833984 28.041016C30.541966 27.373382 29.032883 26.877148 27.357422 26.837891C26.574505 26.819541 25.756651 26.900091 24.908203 27.109375C23.192547 27.532568 21.912439 28.431479 21.070312 29.566406C20.228186 30.701333 19.809586 32.032956 19.603516 33.353516C19.191375 35.994635 19.591797 38.728645 19.591797 40.056641C19.591797 41.891761 20.647873 43.46589 22.291016 44.160156C23.934158 44.854422 26.06204 44.801905 28.496094 44.001953C31.274621 43.088791 33.188815 40.247951 34.564453 37.728516C35.843655 35.385699 36.543369 33.390253 36.644531 33.097656 A 1.0001 1.0001 0 0 0 36.710938 32.214844C34.011767 25.119154 27.849856 22.016235 22.951172 20.65625C23.793363 19.861532 24.669493 19.099981 25.576172 18.384766C32.058941 13.270963 39.933597 10.425655 44.746094 11.103516C45.884647 11.263812 47.12527 11.734985 48.408203 12.427734C44.657921 14.618721 42.43362 17.435946 41.144531 19.976562C41.236558 19.045791 41.401466 18.246768 41.591797 17.589844C42.072469 15.930804 42.642578 15.214844 42.642578 15.214844 A 1.0001 1.0001 0 0 0 41.898438 13.59375 A 1.0001 1.0001 0 0 0 41.056641 13.996094C41.056641 13.996094 40.232999 15.089743 39.669922 17.033203C39.116232 18.944262 38.767444 21.755915 39.445312 25.404297C39.359145 26.086162 39.330078 26.582031 39.330078 26.582031 A 1.0001 1.0001 0 1 0 41.330078 26.582031C41.330078 26.582031 41.353271 26.196449 41.417969 25.666016 A 1.000708 1.000708 0 0 0 41.457031 25.380859C41.601484 24.402298 41.923796 22.944106 42.75 21.212891C43.95687 18.684097 46.162914 15.780766 50.345703 13.638672C52.672474 15.293527 55.070257 17.669742 57.275391 20.675781C61.350415 26.230857 64.793019 33.780743 66.25 42.171875 A 1.0002293 1.0002293 0 0 0 66.275391 42.28125L66.275391 42.283203L66.277344 42.285156 A 1.0002293 1.0002293 0 0 0 66.888672 42.9375 A 1.0002293 1.0002293 0 0 0 66.890625 42.9375 A 1.0002293 1.0002293 0 0 0 67.234375 43 A 1.0002293 1.0002293 0 0 0 67.236328 43 A 1.0002293 1.0002293 0 0 0 68.035156 42.597656 A 1.0002293 1.0002293 0 0 0 68.220703 41.828125C66.707684 33.114257 63.154194 25.309612 58.886719 19.492188C56.868174 16.740507 54.695527 14.438072 52.476562 12.685547C52.593687 12.640173 52.704566 12.593076 52.824219 12.548828 A 1.0001 1.0001 0 0 0 52.492188 10.605469 A 1.0001 1.0001 0 0 0 52.130859 10.673828C51.586514 10.875129 51.072174 11.092192 50.572266 11.316406C48.716471 10.14183 46.847848 9.3796297 45.025391 9.1230469C44.298453 9.0206545 43.536586 8.9799819 42.746094 8.9980469 z M 50.958984 19.59375 A 1.0001 1.0001 0 0 0 50.511719 19.699219C50.511719 19.699219 47.946964 20.963102 45.814453 23.025391C44.748198 24.056535 43.76179 25.300695 43.292969 26.785156C42.824147 28.269617 42.96356 30.018214 44.056641 31.634766 A 1.0001 1.0001 0 0 0 44.058594 31.634766C47.245961 36.348123 51.042814 37.625 54.3125 37.625C55.947343 37.625 57.855314 37.378738 59.355469 36.611328C60.105546 36.227623 60.791128 35.685434 61.152344 34.873047C61.513559 34.06066 61.436088 33.056294 60.960938 32.119141C60.201158 30.622575 58.670447 27.598902 56.919922 24.914062C56.044659 23.571644 55.11976 22.311688 54.162109 21.341797C53.204459 20.371906 52.211122 19.59375 50.958984 19.59375 z M 51.083984 21.675781C51.388339 21.721561 51.996761 21.995095 52.738281 22.746094C53.125849 23.138615 53.532521 23.619052 53.943359 24.154297 A 3 3 0 0 0 53 24 A 3 3 0 0 0 53 30 A 3 3 0 0 0 55.992188 27.216797C57.347913 29.447428 58.534637 31.756703 59.177734 33.023438C59.461584 33.583284 59.425785 33.832121 59.324219 34.060547C59.222653 34.288973 58.942907 34.574533 58.443359 34.830078C57.444265 35.341169 55.714657 35.625 54.3125 35.625C51.508186 35.625 48.601476 34.782314 45.714844 30.513672C44.924424 29.344723 44.882509 28.389539 45.199219 27.386719C45.515929 26.383899 46.282208 25.355371 47.205078 24.462891C48.839558 22.882233 50.639886 21.910097 51.083984 21.675781 z M 27.337891 28.849609C31.377011 28.993882 34.102663 32.230929 34.578125 32.808594C34.421065 33.25278 33.933252 34.713333 32.810547 36.769531C31.529435 39.115846 29.647567 41.517725 27.871094 42.101562C25.750148 42.798611 24.082467 42.74489 23.068359 42.316406C22.054252 41.887922 21.591797 41.21552 21.591797 40.056641C21.591797 38.94183 21.44372 37.446456 21.441406 35.916016C21.892161 36.570603 22.644903 37 23.5 37C24.881 37 26 35.881 26 34.5C26 33.119 24.881 32 23.5 32C22.837999 32 22.240159 32.261773 21.792969 32.681641C21.989249 31.960359 22.271767 31.3023 22.675781 30.757812C23.257061 29.974428 24.065874 29.376588 25.386719 29.050781C26.056521 28.885564 26.709296 28.827157 27.337891 28.849609 z M 43.365234 37.150391C43.087418 37.136073 42.809626 37.137931 42.533203 37.158203C41.721137 37.150012 40.956257 37.252048 40.246094 37.462891C39.307571 37.741531 38.478985 38.200088 37.751953 38.779297C36.411503 39.730733 34.889002 41.356101 34.302734 44.054688C33.55906 46.212356 33.257812 48.529017 33.257812 50.537109C33.257812 56.017984 28.90625 61.908203 28.90625 61.908203L28.210938 62.822266L29.210938 63.384766C34.928584 66.606725 40.716649 64.569628 45.384766 61.884766C47.718824 60.542335 49.825756 59.028291 51.597656 57.878906C53.369556 56.729521 54.867933 56.029297 55.513672 56.029297C58.010345 56.029297 59.906406 55.181454 60.896484 53.716797C61.886563 52.25214 61.841556 50.324755 60.960938 48.587891C59.518664 45.744173 55.821917 42.437985 50.183594 39.646484 A 1.0001 1.0001 0 0 0 50.107422 39.591797C50.107422 39.591797 48.575706 38.602153 46.611328 37.886719C45.629139 37.529002 44.499973 37.20887 43.365234 37.150391 z M 43.175781 39.193359C43.954516 39.274491 44.816457 39.481939 45.783203 39.863281L45.783203 39.865234C46.792289 40.26318 47.739189 40.685943 48.644531 41.121094C48.712761 41.400758 48.857536 41.908094 48.740234 42.566406C48.665384 42.986475 48.513074 43.317391 48.220703 43.568359C47.928332 43.819328 47.436648 44.048828 46.466797 44.048828C44.645865 44.048828 43.511555 42.835264 42.716797 41.435547C42.165532 40.464667 42.100138 39.987713 41.960938 39.476562C42.351152 39.357217 42.71826 39.203276 43.175781 39.193359 z M 39.701172 39.958984C39.930302 40.585526 40.227826 41.268122 40.486328 42.669922C40.66438 43.635459 40.738454 44.626431 40.625 45.353516C40.511546 46.0806 40.292181 46.445633 39.888672 46.644531C39.356682 46.90676 39.010717 46.883164 38.613281 46.732422C38.215846 46.581682 37.7853 46.241157 37.410156 45.818359C36.792358 45.122083 36.515988 44.499458 36.392578 44.234375C36.737626 43.325741 37.156058 42.473171 37.671875 41.753906C38.089966 41.170912 38.556227 40.671492 39.080078 40.269531C39.299483 40.147639 39.52004 40.030445 39.701172 39.958984 z M 50.779297 42.220703C55.314561 44.74615 58.19842 47.561281 59.177734 49.492188C59.81512 50.749322 59.768406 51.816313 59.240234 52.597656C59.024654 52.916572 58.700058 53.211228 58.259766 53.451172C58.0706 52.983245 57.693806 52.116595 56.957031 51.130859C56.46676 50.474923 55.852996 49.824844 55.021484 49.423828C54.605728 49.22332 54.123067 49.106586 53.619141 49.101562C53.115214 49.096562 52.589325 49.202243 52.083984 49.451172C50.108692 50.424193 49.322083 52.554223 48.9375 54.298828C48.87119 54.599635 48.920923 54.582021 48.876953 54.863281C48.391991 54.384051 47.805411 53.914646 47.033203 53.677734C46.211758 53.425717 45.214098 53.469098 44.251953 53.943359C42.319001 54.896151 41.598989 57.006925 41.226562 58.816406C40.843924 58.233563 40.450481 57.636516 39.810547 57.242188C39.013009 56.750743 37.877579 56.621208 36.851562 57.126953C34.184113 58.441794 32.623409 61.103149 32.019531 62.322266C31.744002 62.224824 31.467553 62.116728 31.191406 61.994141C32.204214 60.580656 35.257812 56.084915 35.257812 50.537109C35.257812 49.380444 35.390247 48.089914 35.652344 46.808594C35.742083 46.921388 35.815334 47.033261 35.914062 47.144531C36.424545 47.719859 37.068076 48.284397 37.904297 48.601562C38.740518 48.918729 39.786926 48.925725 40.773438 48.439453C41.888429 47.889851 42.428345 46.757728 42.599609 45.660156C42.656862 45.293243 42.673272 44.919137 42.673828 44.542969C43.643837 45.408082 44.891462 46.048828 46.466797 46.048828C47.774446 46.048828 48.807527 45.700468 49.523438 45.085938C50.239348 44.471406 50.578209 43.649947 50.708984 42.916016C50.751499 42.67742 50.769439 42.446245 50.779297 42.220703 z M 67.763672 44.964844L66.960938 45.365234L66.804688 46.248047L67.416016 46.902344L67.763672 46.964844L68.564453 46.5625L68.722656 45.679688L68.109375 45.025391L67.763672 44.964844 z M 67.984375 48.957031L67.183594 49.357422L67.025391 50.240234L67.638672 50.894531L67.984375 50.957031L68.785156 50.554688L68.943359 49.673828L68.332031 49.019531L67.984375 48.957031 z M 53.605469 51.070312C53.789325 51.072911 53.958584 51.131162 54.152344 51.224609C54.539863 51.4115 54.980115 51.825937 55.355469 52.328125C55.813539 52.940981 56.112639 53.537233 56.316406 53.990234C56.064473 54.014072 55.800419 54.029297 55.513672 54.029297C53.932291 54.029297 52.434077 54.957708 50.673828 56.097656C50.719525 55.679837 50.781035 55.225658 50.890625 54.728516C51.217792 53.244371 51.905042 51.770072 52.96875 51.246094C53.22316 51.120772 53.421613 51.067714 53.605469 51.070312 z M 67.888672 52.953125L67.087891 53.355469L66.929688 54.236328L67.541016 54.892578L67.888672 54.953125L68.689453 54.552734L68.847656 53.669922L68.236328 53.015625L67.888672 52.953125 z M 45.857422 55.517578C46.068042 55.500185 46.257379 55.531587 46.447266 55.589844C46.827039 55.706357 47.216841 55.980792 47.560547 56.333984C48.003697 56.789366 48.277028 57.240126 48.457031 57.568359C47.168391 58.432735 45.82593 59.32263 44.386719 60.150391C43.900719 60.429913 43.409268 60.694606 42.914062 60.945312C42.953408 60.483402 43.009509 59.978809 43.115234 59.427734C43.423304 57.821994 44.114795 56.242008 45.136719 55.738281C45.414896 55.601162 45.646801 55.534972 45.857422 55.517578 z M 67.40625 56.919922L66.605469 57.322266L66.447266 58.203125L67.060547 58.857422L67.40625 58.919922L68.208984 58.517578L68.365234 57.636719L67.753906 56.982422L67.40625 56.919922 z M 38.304688 58.763672C38.457308 58.774079 38.591097 58.840176 38.761719 58.945312C39.102962 59.155588 39.510807 59.63449 39.84375 60.208984C40.188307 60.80352 40.445438 61.444636 40.621094 61.945312C38.485961 62.746833 36.288018 63.151167 34.054688 62.822266C34.709872 61.679653 35.996806 59.776405 37.734375 58.919922C37.980617 58.798544 38.152067 58.753264 38.304688 58.763672 z M 66.292969 60.759766L65.492188 61.160156L65.333984 62.042969L65.945312 62.697266L66.292969 62.759766L67.09375 62.357422L67.251953 61.476562L66.638672 60.822266L66.292969 60.759766 z M 64.927734 64.519531L64.126953 64.919922L63.96875 65.802734L64.582031 66.457031L64.927734 66.519531L65.728516 66.117188L65.886719 65.236328L65.275391 64.580078L64.927734 64.519531 z M 23.863281 65.652344L23.0625 66.052734L22.904297 66.935547L23.515625 67.589844L23.863281 67.652344L24.664062 67.25L24.822266 66.369141L24.210938 65.714844L23.863281 65.652344 z M 26.994141 68.136719L26.191406 68.539062L26.035156 69.421875L26.646484 70.076172L26.994141 70.136719L27.794922 69.736328L27.953125 68.853516L27.339844 68.199219L26.994141 68.136719 z M 63.431641 68.228516L62.630859 68.630859L62.472656 69.511719L63.085938 70.166016L63.431641 70.228516L64.234375 69.826172L64.390625 68.945312L63.779297 68.291016L63.431641 68.228516 z" fill="#FFFFFF" />
</svg>