<svg xmlns="http://www.w3.org/2000/svg" xmlns:xlink="http://www.w3.org/1999/xlink" viewBox="0 0 64 64"><linearGradient id="gu40cpfhuWPORDIqNTxTna" x1="47.5" x2="47.5" y1="10.319" y2="48.103" gradientUnits="userSpaceOnUse"><stop offset="0" stop-color="#6dc7ff"/><stop offset="1" stop-color="#e6abff"/></linearGradient><path fill="url(#gu40cpfhuWPORDIqNTxTna)" d="M49,50.245v-36.49C49,13.338,48.662,13,48.245,13h-1.49C46.338,13,46,13.338,46,13.755v36.49 C46,50.662,46.338,51,46.755,51h1.49C48.662,51,49,50.662,49,50.245z"/><linearGradient id="gu40cpfhuWPORDIqNTxTnb" x1="25.243" x2="25.243" y1="10.319" y2="48.103" gradientUnits="userSpaceOnUse"><stop offset="0" stop-color="#6dc7ff"/><stop offset="1" stop-color="#e6abff"/></linearGradient><path fill="url(#gu40cpfhuWPORDIqNTxTnb)" d="M16.726,46.738L34.59,33.752c1.194-0.868,1.194-2.649,0-3.517L16.726,17.248 C16.008,16.726,15,17.239,15,18.127v27.731C15,46.747,16.008,47.26,16.726,46.738z"/><linearGradient id="gu40cpfhuWPORDIqNTxTnc" x1="32" x2="32" y1="8.149" y2="54.164" gradientUnits="userSpaceOnUse"><stop offset="0" stop-color="#1a6dff"/><stop offset="1" stop-color="#c822ff"/></linearGradient><path fill="url(#gu40cpfhuWPORDIqNTxTnc)" d="M51.008,8h-6.932c-1.65,0-2.993,1.343-2.993,2.992v17.789c-0.388-0.609-0.885-1.154-1.488-1.603L14.566,8.56c-0.871-0.647-2.02-0.749-2.991-0.26C10.604,8.788,10,9.767,10,10.854v42.277c0,1.088,0.604,2.066,1.575,2.555c0.409,0.206,0.85,0.308,1.287,0.308c0.602,0,1.199-0.192,1.704-0.567l25.028-18.619c0.603-0.448,1.101-0.993,1.488-1.603v17.803c0,1.649,1.343,2.992,2.993,2.992h6.932C52.657,56,54,54.657,54,53.008V10.992C54,9.343,52.657,8,51.008,8z M38.401,35.202L13.373,53.821c-0.386,0.287-0.759,0.15-0.899,0.078C12.331,53.828,12,53.61,12,53.132V10.854c0-0.479,0.331-0.696,0.474-0.768c0.077-0.039,0.22-0.096,0.396-0.096c0.15,0,0.325,0.042,0.503,0.174l25.028,18.619c1.024,0.762,1.612,1.932,1.612,3.209S39.426,34.44,38.401,35.202z M52,53.008C52,53.555,51.555,54,51.008,54h-6.932c-0.548,0-0.993-0.445-0.993-0.992V10.992c0-0.547,0.445-0.992,0.993-0.992h6.932C51.555,10,52,10.445,52,10.992V53.008z"/></svg>