<svg xmlns="http://www.w3.org/2000/svg" xmlns:xlink="http://www.w3.org/1999/xlink" viewBox="0 0 64 64"><linearGradient id="3Ad_y8QAhBdBs2bdhVOXva" x1="32" x2="32" y1="6.167" y2="59.032" gradientUnits="userSpaceOnUse" spreadMethod="reflect"><stop offset="0" stop-color="#1a6dff"/><stop offset="1" stop-color="#c822ff"/></linearGradient><path fill="url(#3Ad_y8QAhBdBs2bdhVOXva)" d="M32,58C17.663,58,6,46.337,6,32S17.663,6,32,6s26,11.663,26,26S46.337,58,32,58z M32,8 C18.767,8,8,18.767,8,32s10.767,24,24,24s24-10.767,24-24S45.233,8,32,8z"/><linearGradient id="3Ad_y8QAhBdBs2bdhVOXvb" x1="32" x2="32" y1="6.167" y2="59.032" gradientUnits="userSpaceOnUse" spreadMethod="reflect"><stop offset="0" stop-color="#1a6dff"/><stop offset="1" stop-color="#c822ff"/></linearGradient><path fill="url(#3Ad_y8QAhBdBs2bdhVOXvb)" d="M32,52c-11.028,0-20-8.972-20-20s8.972-20,20-20s20,8.972,20,20S43.028,52,32,52z M32,14 c-9.925,0-18,8.075-18,18s8.075,18,18,18s18-8.075,18-18S41.925,14,32,14z"/><linearGradient id="3Ad_y8QAhBdBs2bdhVOXvc" x1="22" x2="22" y1="27.333" y2="36.668" gradientUnits="userSpaceOnUse" spreadMethod="reflect"><stop offset="0" stop-color="#6dc7ff"/><stop offset="1" stop-color="#e6abff"/></linearGradient><path fill="url(#3Ad_y8QAhBdBs2bdhVOXvc)" d="M22 29A3 3 0 1 0 22 35A3 3 0 1 0 22 29Z"/><linearGradient id="3Ad_y8QAhBdBs2bdhVOXvd" x1="32" x2="32" y1="27.333" y2="36.668" gradientUnits="userSpaceOnUse" spreadMethod="reflect"><stop offset="0" stop-color="#6dc7ff"/><stop offset="1" stop-color="#e6abff"/></linearGradient><path fill="url(#3Ad_y8QAhBdBs2bdhVOXvd)" d="M32 28A4 4 0 1 0 32 36A4 4 0 1 0 32 28Z"/><linearGradient id="3Ad_y8QAhBdBs2bdhVOXve" x1="42" x2="42" y1="27.333" y2="36.668" gradientUnits="userSpaceOnUse" spreadMethod="reflect"><stop offset="0" stop-color="#6dc7ff"/><stop offset="1" stop-color="#e6abff"/></linearGradient><path fill="url(#3Ad_y8QAhBdBs2bdhVOXve)" d="M42 29A3 3 0 1 0 42 35A3 3 0 1 0 42 29Z"/></svg>