<svg width="702" height="590" viewBox="0 0 702 590" fill="none" xmlns="http://www.w3.org/2000/svg">
<g clip-path="url(#clip0)">
<path d="M581.229 369.046C580.343 361.365 576.06 354.619 569.515 350.49L408.465 249.824C398.435 243.566 385.584 245.029 377.22 253.394L317.734 312.879L291.51 339.104L203.771 426.842C187.03 443.583 160.087 444.66 143.714 429.24C135.261 421.464 130.644 410.708 130.46 399.232C130.287 387.756 134.666 376.964 142.78 368.849C159.182 352.448 184.425 351.002 202.272 368.849L214.171 356.951C190.374 333.154 153.84 333.993 130.882 356.951C119.519 368.314 113.397 383.419 113.641 399.488C113.873 414.926 119.971 429.329 130.858 440.216C131.287 440.644 131.733 441.078 132.179 441.501C155.107 463.085 192.557 461.853 215.67 438.74L303.408 351.002L329.632 324.778C332.423 321.988 336.706 321.5 340.049 323.582L501.118 424.254C503.313 425.64 504.735 427.883 505.026 430.447C505.324 433.005 504.437 435.534 502.617 437.354L475.935 464.036L380.748 559.223C371.753 568.218 359.325 572.627 346.653 571.318C333.969 570.021 322.624 562.983 315.461 552.084C306.609 538.556 306.609 520.399 315.461 506.871C322.624 495.948 333.981 488.946 346.653 487.637C359.325 486.328 368.849 487.833 380.748 499.731L392.646 487.833C380.748 475.935 362.656 469.063 344.922 470.89C327.193 472.722 311.327 482.473 301.392 497.655C288.928 516.687 288.922 542.262 301.392 561.3C311.333 576.512 327.211 586.239 344.922 588.065C362.656 589.891 380.052 583.716 392.646 571.122L487.833 475.935L514.509 449.259L573.995 389.773C579.468 384.299 582.11 376.744 581.229 369.046ZM510.041 409.988L348.967 309.31C348.14 308.792 346.635 307.775 346.415 307.995L389.124 265.286C391.92 262.49 396.204 262.002 399.553 264.09L560.604 364.756C562.781 366.077 564.233 368.374 564.524 370.95C564.804 373.526 563.923 376.048 562.097 377.874L519.334 420.637C514.509 413.564 514.194 412.606 510.041 409.988Z" fill="url(#paint0_linear)" fill-opacity="0.3"/>
<path d="M661.579 360.265C660.835 352.787 656.867 346.118 650.674 341.995L447.105 205.021L437.717 218.989L641.31 355.975C644.047 357.82 644.695 360.479 644.838 361.919C645.094 364.578 644.124 367.237 642.161 369.2L523.528 487.833L535.427 499.732L654.059 381.099C659.598 375.56 662.341 367.963 661.579 360.265Z" fill="url(#paint1_linear)" fill-opacity="0.3"/>
<path d="M190.374 380.748C200.232 390.606 200.232 406.585 190.374 416.443C180.516 426.301 164.537 426.301 154.679 416.443C144.821 406.585 144.821 390.606 154.679 380.748C164.537 370.89 180.516 370.89 190.374 380.748Z" fill="url(#paint2_linear)"/>
<path d="M368.849 511.63C366.506 509.286 363.723 507.427 360.661 506.159C357.599 504.89 354.316 504.237 351.002 504.237C347.687 504.237 344.405 504.89 341.343 506.159C338.281 507.427 335.498 509.286 333.154 511.63C330.81 513.974 328.951 516.756 327.683 519.819C326.414 522.881 325.762 526.163 325.762 529.478C325.762 532.792 326.414 536.074 327.683 539.137C328.951 542.199 330.81 544.981 333.154 547.325C335.498 549.669 338.281 551.528 341.343 552.796C344.405 554.065 347.687 554.718 351.002 554.718C354.316 554.718 357.599 554.065 360.661 552.796C363.723 551.528 366.506 549.669 368.849 547.325C371.193 544.981 373.052 542.199 374.321 539.137C375.589 536.074 376.242 532.792 376.242 529.478C376.242 526.163 375.589 522.881 374.321 519.819C373.052 516.756 371.193 513.974 368.849 511.63Z" fill="url(#paint3_linear)" fill-opacity="0.3"/>
</g>
<defs>
<linearGradient id="paint0_linear" x1="533.963" y1="201.642" x2="203.783" y2="519.923" gradientUnits="userSpaceOnUse">
<stop stop-color="#1A6DFF"/>
<stop offset="1" stop-color="#C822FF"/>
</linearGradient>
<linearGradient id="paint1_linear" x1="588.713" y1="258.438" x2="258.534" y2="576.72" gradientUnits="userSpaceOnUse">
<stop stop-color="#1A6DFF"/>
<stop offset="1" stop-color="#C822FF"/>
</linearGradient>
<linearGradient id="paint2_linear" x1="197.81" y1="373.311" x2="146.463" y2="424.659" gradientUnits="userSpaceOnUse">
<stop stop-color="#6DC7FF"/>
<stop offset="1" stop-color="#E6ABFF"/>
</linearGradient>
<linearGradient id="paint3_linear" x1="374.799" y1="505.681" x2="325.629" y2="554.851" gradientUnits="userSpaceOnUse">
<stop stop-color="#6DC7FF"/>
<stop offset="1" stop-color="#E6ABFF"/>
</linearGradient>
<clipPath id="clip0">
<rect width="538.459" height="538.459" fill="white" transform="translate(380.748) rotate(45)"/>
</clipPath>
</defs>
</svg>
