<svg xmlns="http://www.w3.org/2000/svg" xmlns:xlink="http://www.w3.org/1999/xlink" viewBox="0 0 64 64"><linearGradient id="bwnRdabNArMgJKA7y7gHua" x1="29.824" x2="28.824" y1="4.07" y2="58.57" gradientUnits="userSpaceOnUse" spreadMethod="reflect"><stop offset="0" stop-color="#1a6dff"/><stop offset="1" stop-color="#c822ff"/></linearGradient><path fill="url(#bwnRdabNArMgJKA7y7gHua)" d="M47.866,14.167c-0.72-0.571-1.647-0.778-2.544-0.575l-21.996,5.075 C21.957,18.984,21,20.187,21,21.593v9.999V36v14.748c0,2.814-2.174,5.169-4.846,5.249c-1.364,0.057-2.656-0.459-3.636-1.408 C11.539,53.639,11,52.364,11,51c0-2.757,2-5,5-5v-2c-4,0-7,3.141-7,7c0,1.91,0.755,3.694,2.126,5.024 c1.317,1.278,3.04,1.976,4.87,1.976c0.072,0,0.146-0.001,0.219-0.003C19.956,57.884,23,54.633,23,50.748V36v-4.408 c0-0.469,0.319-0.87,0.775-0.976l21.998-5.076c0.301-0.068,0.609,0.001,0.849,0.192c0.24,0.19,0.378,0.477,0.378,0.783V31v16 c0,1.512-0.674,2.927-1.849,3.882c-1.175,0.957-2.72,1.319-4.238,1.005c-1.881-0.393-3.407-1.919-3.8-3.8 c-0.316-1.52,0.05-3.063,1.005-4.238S40,42,42,42v-2c-2,0-4.098,0.943-5.435,2.587c-1.336,1.644-1.85,3.797-1.409,5.908 c0.552,2.647,2.701,4.797,5.349,5.349c2.114,0.443,4.266-0.074,5.908-1.409C48.057,51.098,49,49.117,49,47V31v-4.484v-9.999 C49,15.597,48.587,14.74,47.866,14.167z M45.324,23.591l-21.999,5.076C23.212,28.693,23,28.734,23,28.771v-7.179 c0-0.47,0.319-0.871,0.776-0.977l21.996-5.075c0.294-0.072,0.609-0.001,0.85,0.191C46.862,15.924,47,16.21,47,16.517v7.188 C46,23.516,45.893,23.462,45.324,23.591z"/><linearGradient id="bwnRdabNArMgJKA7y7gHub" x1="39.199" x2="38.199" y1="4.242" y2="58.742" gradientUnits="userSpaceOnUse" spreadMethod="reflect"><stop offset="0" stop-color="#1a6dff"/><stop offset="1" stop-color="#c822ff"/></linearGradient><path fill="url(#bwnRdabNArMgJKA7y7gHub)" d="M53.881,6.676c-0.691-0.566-1.585-0.793-2.452-0.619l-28.621,5.597l0.385,1.963l28.624-5.598 c0.385-0.075,0.663,0.094,0.796,0.203C52.858,8.424,53,8.729,53,9.059V29h2V9.059C55,8.128,54.592,7.259,53.881,6.676z"/><linearGradient id="bwnRdabNArMgJKA7y7gHuc" x1="16" x2="16" y1="46.75" y2="55.381" gradientUnits="userSpaceOnUse" spreadMethod="reflect"><stop offset="0" stop-color="#6dc7ff"/><stop offset="1" stop-color="#e6abff"/></linearGradient><path fill="url(#bwnRdabNArMgJKA7y7gHuc)" d="M16,48c1.657,0,3,1.343,3,3s-1.343,3-3,3s-3-1.343-3-3S14.343,48,16,48"/><linearGradient id="bwnRdabNArMgJKA7y7gHud" x1="42" x2="42" y1="43" y2="51.265" gradientUnits="userSpaceOnUse" spreadMethod="reflect"><stop offset="0" stop-color="#6dc7ff"/><stop offset="1" stop-color="#e6abff"/></linearGradient><path fill="url(#bwnRdabNArMgJKA7y7gHud)" d="M42 44A3 3 0 1 0 42 50A3 3 0 1 0 42 44Z"/></svg>