<svg width="1021" height="1024" viewBox="0 0 1021 1024" fill="none" xmlns="http://www.w3.org/2000/svg">
<g clip-path="url(#clip0)">
<path d="M655.825 157.183C649.969 142.379 637.853 131.244 622.637 126.519L248.659 12.1265C225.373 5.02401 200.594 14.7834 188.415 35.8784L101.801 185.898L63.6175 252.034L-64.1338 473.305C-88.5094 515.525 -141.527 532.027 -182.309 510.081C-203.268 499.121 -218.182 480.188 -224.665 457.46C-231.125 434.727 -228.167 410.928 -216.352 390.464C-192.47 349.099 -143.033 332.771 -98.0228 358.757L-80.6982 328.75C-140.712 294.101 -212.931 315.24 -246.359 373.139C-262.904 401.796 -267.029 435.102 -257.981 466.933C-249.291 497.515 -229.487 522.913 -202.03 538.765C-200.95 539.388 -199.831 540.014 -198.718 540.617C-141.611 571.327 -67.7798 548.919 -34.1268 490.63L93.6245 269.358L131.808 203.223C135.87 196.186 144.13 192.933 151.89 195.293L525.907 309.688C531.012 311.275 535.035 314.978 536.981 319.923C538.936 324.852 538.521 330.354 535.87 334.945L497.02 402.235L358.423 642.291C345.326 664.977 322.957 680.368 297.055 684.519C271.136 688.699 244.82 680.747 224.765 662.886C199.947 640.696 190.271 604.582 200.668 572.956C209.093 547.414 227.951 527.434 252.457 518.077C276.964 508.72 296.71 506.638 326.717 523.963L344.042 493.956C314.035 476.631 274.389 472.606 240.088 485.69C205.803 498.783 179.441 526.633 167.772 562.126C153.125 606.622 166.743 657.494 201.691 688.714C229.571 713.673 266.337 724.557 302.537 718.751C338.784 712.932 370.092 691.378 388.43 659.616L527.027 419.56L565.869 352.284L652.483 202.264C660.452 188.461 661.679 172.026 655.825 157.183ZM536.053 276.557L162.021 162.153C160.1 161.564 156.565 160.343 156.244 160.898L218.431 53.1879C222.502 46.1362 230.761 42.8831 238.536 45.2514L612.514 159.644C617.549 161.11 621.66 164.904 623.613 169.873C625.542 174.847 625.135 180.334 622.476 184.94L560.211 292.785C546.845 281.287 545.707 279.55 536.053 276.557Z" fill="url(#paint0_linear)" fill-opacity="0.3"/>
<path d="M810.96 96.8953C805.495 82.4177 794.049 71.2679 779.533 66.3683L301.635 -97.5801L290.408 -64.7933L768.359 99.1661C774.785 101.376 777.492 106.32 778.544 109.107C780.47 114.26 779.958 120.066 777.1 125.017L604.365 424.202L634.372 441.527L807.107 142.342C815.171 128.374 816.577 111.801 810.96 96.8953Z" fill="url(#paint1_linear)" fill-opacity="0.3"/>
<path d="M309.393 553.97C303.482 550.557 296.957 548.342 290.19 547.451C283.423 546.56 276.547 547.011 269.954 548.778C263.361 550.544 257.181 553.592 251.766 557.747C246.352 561.902 241.808 567.083 238.395 572.993C234.983 578.904 232.768 585.429 231.877 592.196C230.986 598.963 231.437 605.839 233.203 612.432C234.97 619.025 238.017 625.205 242.172 630.62C246.327 636.035 251.508 640.578 257.419 643.991C263.33 647.403 269.855 649.618 276.622 650.509C283.389 651.4 290.265 650.949 296.858 649.183C303.45 647.416 309.631 644.369 315.045 640.214C320.46 636.059 325.004 630.878 328.416 624.967C331.829 619.056 334.044 612.531 334.935 605.764C335.826 598.997 335.375 592.121 333.609 585.528C331.842 578.936 328.794 572.756 324.639 567.341C320.484 561.926 315.304 557.382 309.393 553.97Z" fill="url(#paint2_linear)" fill-opacity="0.3"/>
</g>
<defs>
<linearGradient id="paint0_linear" x1="472.595" y1="-150.592" x2="-14.5027" y2="658.436" gradientUnits="userSpaceOnUse">
<stop stop-color="#1A6DFF"/>
<stop offset="1" stop-color="#C822FF"/>
</linearGradient>
<linearGradient id="paint1_linear" x1="611.763" y1="-66.8027" x2="124.665" y2="742.226" gradientUnits="userSpaceOnUse">
<stop stop-color="#1A6DFF"/>
<stop offset="1" stop-color="#C822FF"/>
</linearGradient>
<linearGradient id="paint2_linear" x1="318.055" y1="538.966" x2="246.461" y2="662.97" gradientUnits="userSpaceOnUse">
<stop stop-color="#6DC7FF"/>
<stop offset="1" stop-color="#E6ABFF"/>
</linearGradient>
<clipPath id="clip0">
<rect width="1108.77" height="1108.77" fill="white" transform="translate(60.3857 -470) rotate(30)"/>
</clipPath>
</defs>
</svg>
