<svg xmlns="http://www.w3.org/2000/svg" xmlns:xlink="http://www.w3.org/1999/xlink" viewBox="0 0 64 64"><linearGradient id="DMrP38310OfyYZGc~Fvjwa" x1="39" x2="39" y1="35.395" y2="27.774" gradientUnits="userSpaceOnUse"><stop offset="0" stop-color="#6dc7ff"/><stop offset="1" stop-color="#e6abff"/></linearGradient><path fill="url(#DMrP38310OfyYZGc~Fvjwa)" d="M39.413,35.171C40.372,34.44,41,33.298,41,32c0-2.209-1.791-4-4-4v4.758L39.413,35.171z"/><linearGradient id="DMrP38310OfyYZGc~Fvjwb" x1="32" x2="32" y1="9.293" y2="55.791" gradientUnits="userSpaceOnUse"><stop offset="0" stop-color="#6dc7ff"/><stop offset="1" stop-color="#e6abff"/></linearGradient><polygon fill="url(#DMrP38310OfyYZGc~Fvjwb)" points="53.293,54.707 9.293,10.707 10.707,9.293 54.707,53.293"/><linearGradient id="DMrP38310OfyYZGc~Fvjwc" x1="33.694" x2="33.694" y1="10.149" y2="53.675" gradientUnits="userSpaceOnUse"><stop offset="0" stop-color="#1a6dff"/><stop offset="1" stop-color="#c822ff"/></linearGradient><path fill="url(#DMrP38310OfyYZGc~Fvjwc)" d="M38,24.069V10h-5c-5.078,0-9.351,3.462-10.611,8.146l1.695,1.695 C24.655,15.425,28.431,12,33,12h3v19.758l2,2V26.09c2.833,0.478,5,2.942,5,5.91c0,1.848-0.841,3.499-2.159,4.599l1.414,1.414 C43.933,36.547,45,34.399,45,32C45,27.928,41.94,24.564,38,24.069z"/><linearGradient id="DMrP38310OfyYZGc~Fvjwd" x1="22" x2="22" y1="10.149" y2="53.675" gradientUnits="userSpaceOnUse"><stop offset="0" stop-color="#1a6dff"/><stop offset="1" stop-color="#c822ff"/></linearGradient><path fill="url(#DMrP38310OfyYZGc~Fvjwd)" d="M36,52h-3c-4.963,0-9-4.037-9-9V28.242l-2-2V42h-2v-9h-2v9h-1c-1.654,0-3-1.346-3-3V25 c0-1.654,1.346-3,3-3h0.758l-1.866-1.866C13.668,20.641,12,22.625,12,25v2h-1c-2.757,0-5,2.243-5,5c0,2.757,2.243,5,5,5h1v2 c0,2.757,2.243,5,5,5h1h2h2.051C22.558,49.598,27.272,54,33,54h5V42.242l-2-2V52z M12,35h-1c-1.654,0-3-1.346-3-3s1.346-3,3-3h1V35 z"/><linearGradient id="DMrP38310OfyYZGc~Fvjwe" x1="47.2" x2="47.2" y1="10.149" y2="53.675" gradientUnits="userSpaceOnUse"><stop offset="0" stop-color="#1a6dff"/><stop offset="1" stop-color="#c822ff"/></linearGradient><path fill="url(#DMrP38310OfyYZGc~Fvjwe)" d="M44.467,20.155l-1.068,1.691C46.906,24.062,49,27.857,49,32c0,3.421-1.445,6.589-3.916,8.841 l1.43,1.43C49.358,39.647,51,35.96,51,32C51,27.167,48.558,22.739,44.467,20.155z"/><linearGradient id="DMrP38310OfyYZGc~Fvjwf" x1="52.505" x2="52.505" y1="10.149" y2="53.675" gradientUnits="userSpaceOnUse"><stop offset="0" stop-color="#1a6dff"/><stop offset="1" stop-color="#c822ff"/></linearGradient><path fill="url(#DMrP38310OfyYZGc~Fvjwf)" d="M48.065,14.148l-1.055,1.699C52.64,19.345,56,25.383,56,32c0,5.318-2.174,10.259-5.948,13.81 l1.414,1.414C55.612,43.302,58,37.859,58,32C58,24.687,54.286,18.013,48.065,14.148z"/></svg>