<svg xmlns="http://www.w3.org/2000/svg" xmlns:xlink="http://www.w3.org/1999/xlink" viewBox="0 0 64 64"><linearGradient id="ggjdWQS58NCQ~~Lqm9Xwoa" x1="19" x2="19" y1="6" y2="58.693" gradientUnits="userSpaceOnUse" spreadMethod="reflect"><stop offset="0" stop-color="#1a6dff"/><stop offset="1" stop-color="#c822ff"/></linearGradient><path fill="url(#ggjdWQS58NCQ~~Lqm9Xwoa)" d="M23,58h-8c-2.757,0-5-2.243-5-5V11c0-2.757,2.243-5,5-5h8c2.757,0,5,2.243,5,5v42 C28,55.757,25.757,58,23,58z M15,8c-1.654,0-3,1.346-3,3v42c0,1.654,1.346,3,3,3h8c1.654,0,3-1.346,3-3V11c0-1.654-1.346-3-3-3H15z"/><linearGradient id="ggjdWQS58NCQ~~Lqm9Xwob" x1="45" x2="45" y1="6" y2="58.693" gradientUnits="userSpaceOnUse" spreadMethod="reflect"><stop offset="0" stop-color="#1a6dff"/><stop offset="1" stop-color="#c822ff"/></linearGradient><path fill="url(#ggjdWQS58NCQ~~Lqm9Xwob)" d="M49,58h-8c-2.757,0-5-2.243-5-5V11c0-2.757,2.243-5,5-5h8c2.757,0,5,2.243,5,5v42 C54,55.757,51.757,58,49,58z M41,8c-1.654,0-3,1.346-3,3v42c0,1.654,1.346,3,3,3h8c1.654,0,3-1.346,3-3V11c0-1.654-1.346-3-3-3H41z"/><linearGradient id="ggjdWQS58NCQ~~Lqm9Xwoc" x1="19" x2="19" y1="10.833" y2="53.389" gradientUnits="userSpaceOnUse" spreadMethod="reflect"><stop offset="0" stop-color="#6dc7ff"/><stop offset="1" stop-color="#e6abff"/></linearGradient><path fill="url(#ggjdWQS58NCQ~~Lqm9Xwoc)" d="M21,53h-4c-1.105,0-2-0.895-2-2V13c0-1.105,0.895-2,2-2h4c1.105,0,2,0.895,2,2v38 C23,52.105,22.105,53,21,53z"/><linearGradient id="ggjdWQS58NCQ~~Lqm9Xwod" x1="45" x2="45" y1="10.833" y2="53.389" gradientUnits="userSpaceOnUse" spreadMethod="reflect"><stop offset="0" stop-color="#6dc7ff"/><stop offset="1" stop-color="#e6abff"/></linearGradient><path fill="url(#ggjdWQS58NCQ~~Lqm9Xwod)" d="M47,53h-4c-1.105,0-2-0.895-2-2V13c0-1.105,0.895-2,2-2h4c1.105,0,2,0.895,2,2v38 C49,52.105,48.105,53,47,53z"/></svg>