<svg xmlns="http://www.w3.org/2000/svg" xmlns:xlink="http://www.w3.org/1999/xlink" viewBox="0 0 64 64"><linearGradient id="MwziKHZcPGRptHuHQvOZla" x1="32" x2="32" y1="5.5" y2="58.343" gradientUnits="userSpaceOnUse" spreadMethod="reflect"><stop offset="0" stop-color="#1a6dff"/><stop offset="1" stop-color="#c822ff"/></linearGradient><path fill="url(#MwziKHZcPGRptHuHQvOZla)" d="M32,58C17.664,58,6,46.336,6,32S17.664,6,32,6s26,11.664,26,26S46.336,58,32,58z M32,8 C18.767,8,8,18.767,8,32s10.767,24,24,24s24-10.767,24-24S45.233,8,32,8z"/><linearGradient id="MwziKHZcPGRptHuHQvOZlb" x1="32" x2="32" y1="5.5" y2="58.343" gradientUnits="userSpaceOnUse" spreadMethod="reflect"><stop offset="0" stop-color="#1a6dff"/><stop offset="1" stop-color="#c822ff"/></linearGradient><path fill="url(#MwziKHZcPGRptHuHQvOZlb)" d="M32,54c-12.131,0-22-9.869-22-22s9.869-22,22-22s22,9.869,22,22S44.131,54,32,54z M32,12 c-11.028,0-20,8.972-20,20s8.972,20,20,20s20-8.972,20-20S43.028,12,32,12z"/><linearGradient id="MwziKHZcPGRptHuHQvOZlc" x1="39" x2="39" y1="5.5" y2="58.343" gradientUnits="userSpaceOnUse" spreadMethod="reflect"><stop offset="0" stop-color="#1a6dff"/><stop offset="1" stop-color="#c822ff"/></linearGradient><path fill="url(#MwziKHZcPGRptHuHQvOZlc)" d="M41,44h-4c-1.654,0-3-1.346-3-3V23c0-1.654,1.346-3,3-3h4c1.654,0,3,1.346,3,3v18 C44,42.654,42.654,44,41,44z M37,22c-0.551,0-1,0.449-1,1v18c0,0.551,0.449,1,1,1h4c0.551,0,1-0.449,1-1V23c0-0.551-0.449-1-1-1H37z"/><linearGradient id="MwziKHZcPGRptHuHQvOZld" x1="25" x2="25" y1="5.5" y2="58.343" gradientUnits="userSpaceOnUse" spreadMethod="reflect"><stop offset="0" stop-color="#1a6dff"/><stop offset="1" stop-color="#c822ff"/></linearGradient><path fill="url(#MwziKHZcPGRptHuHQvOZld)" d="M27,44h-4c-1.654,0-3-1.346-3-3V23c0-1.654,1.346-3,3-3h4c1.654,0,3,1.346,3,3v18 C30,42.654,28.654,44,27,44z M23,22c-0.551,0-1,0.449-1,1v18c0,0.551,0.449,1,1,1h4c0.551,0,1-0.449,1-1V23c0-0.551-0.449-1-1-1H23z"/><linearGradient id="MwziKHZcPGRptHuHQvOZle" x1="39" x2="39" y1="23.667" y2="40.67" gradientUnits="userSpaceOnUse" spreadMethod="reflect"><stop offset="0" stop-color="#6dc7ff"/><stop offset="1" stop-color="#e6abff"/></linearGradient><path fill="url(#MwziKHZcPGRptHuHQvOZle)" d="M38 24H40V40H38z"/><linearGradient id="MwziKHZcPGRptHuHQvOZlf" x1="25" x2="25" y1="23.667" y2="40.67" gradientUnits="userSpaceOnUse" spreadMethod="reflect"><stop offset="0" stop-color="#6dc7ff"/><stop offset="1" stop-color="#e6abff"/></linearGradient><path fill="url(#MwziKHZcPGRptHuHQvOZlf)" d="M24 24H26V40H24z"/></svg>