<svg xmlns="http://www.w3.org/2000/svg" xmlns:xlink="http://www.w3.org/1999/xlink" viewBox="0 0 64 64"><linearGradient id="~HPF_Zfovo6sbMn5GVCZQa" x1="34" x2="34" y1="20.66" y2="41.468" gradientUnits="userSpaceOnUse"><stop offset="0" stop-color="#6bc5fd"/><stop offset="1" stop-color="#e4a9fd"/></linearGradient><path fill="url(#~HPF_Zfovo6sbMn5GVCZQa)" d="M25,39.718V24.282c0-1.694,1.858-2.796,3.362-2.038l13.375,7.718c1.668,0.84,1.69,3.237,0.022,4.076l-13.408,7.718C26.847,42.514,25,41.412,25,39.718z"/><linearGradient id="~HPF_Zfovo6sbMn5GVCZQb" x1="32" x2="32" y1="6.489" y2="57.426" gradientUnits="userSpaceOnUse"><stop offset="0" stop-color="#1a6dff"/><stop offset="1" stop-color="#c822ff"/></linearGradient><path fill="url(#~HPF_Zfovo6sbMn5GVCZQb)" d="M32,6C17.664,6,6,17.664,6,32s11.664,26,26,26s26-11.664,26-26S46.336,6,32,6z M32,56 C18.766,56,8,45.234,8,32S18.766,8,32,8s24,10.766,24,24S45.234,56,32,56z"/><linearGradient id="~HPF_Zfovo6sbMn5GVCZQc" x1="34" x2="34" y1="6.489" y2="57.426" gradientUnits="userSpaceOnUse"><stop offset="0" stop-color="#1a6dff"/><stop offset="1" stop-color="#c822ff"/></linearGradient><path fill="url(#~HPF_Zfovo6sbMn5GVCZQc)" d="M42.238,29.096l-13.426-7.745c-1.03-0.52-2.242-0.461-3.242,0.155 C24.587,22.111,24,23.149,24,24.282v15.437c0,1.135,0.586,2.174,1.569,2.779c0.537,0.331,1.136,0.5,1.743,0.5 c0.518,0,1.042-0.124,1.539-0.374l13.359-7.692C43.314,34.375,44,33.258,44,32.016C44,30.761,43.305,29.631,42.238,29.096z M41.261,33.171l-13.359,7.692c-0.404,0.203-0.885,0.177-1.284-0.069C26.432,40.68,26,40.346,26,39.718V24.282 c0-0.625,0.433-0.959,0.62-1.074c0.231-0.143,0.489-0.212,0.734-0.212c0.182,0,0.357,0.039,0.508,0.114l13.426,7.745 C41.734,31.08,42,31.513,42,32.016C42,32.505,41.742,32.927,41.261,33.171z"/></svg>