<svg width="32" height="32" viewBox="0 0 32 32" fill="none" xmlns="http://www.w3.org/2000/svg">
<circle cx="16" cy="16" r="16" fill="#BED6FF"/>
<path d="M13 27.95C13 28.358 13.4075 28.6235 13.754 28.441L18.425 25.98C19.2135 25.5645 19.2135 24.435 18.425 24.0195L13.754 21.5585C13.4075 21.376 13 21.6415 13 22.05V27.95Z" fill="url(#paint0_linear)"/>
<path d="M19 9.94999C19 10.358 18.5925 10.6235 18.246 10.441L13.575 7.97999C12.7865 7.56449 12.7865 6.43499 13.575 6.01949L18.246 3.5585C18.5925 3.376 19 3.6415 19 4.05V9.94999Z" fill="url(#paint1_linear)"/>
<path d="M18.658 23.5775L13.987 21.116C13.675 20.952 13.308 20.962 13.004 21.1445C12.6885 21.3355 12.5 21.6735 12.5 22.05V23.5H6.5C6.224 23.5 6 23.276 6 23V9C6 8.724 6.224 8.5 6.5 8.5H9.5C10.0515 8.5 10.5 8.0515 10.5 7.5V6.5C10.5 5.9485 10.0515 5.5 9.5 5.5H6.5C4.5705 5.5 3 7.0705 3 9V23C3 24.9295 4.5705 26.5 6.5 26.5H12.5V27.95C12.5 28.3265 12.6885 28.6645 13.0045 28.8555C13.1645 28.9515 13.3425 29 13.5205 29C13.68 29 13.84 28.9615 13.987 28.884L18.659 26.423C19.1885 26.1435 19.5175 25.5985 19.517 24.9995C19.5165 24.4015 19.1875 23.8565 18.658 23.5775ZM6.5 25.5C5.1215 25.5 4 24.3785 4 23V9C4 7.6215 5.1215 6.5 6.5 6.5H9.5V7.5H6.5C5.673 7.5 5 8.173 5 9V23C5 23.827 5.673 24.5 6.5 24.5H12.5V25.5H6.5ZM18.1925 25.538L13.524 28.0005C13.5235 28.0005 13.5 27.9915 13.5 27.95V22.05C13.5 22.011 13.521 22.001 13.521 22.001L18.1925 24.4625C18.3955 24.5695 18.5165 24.7705 18.5165 25C18.5165 25.2295 18.3955 25.431 18.1925 25.538Z" fill="url(#paint2_linear)"/>
<path d="M25.5 5.5H19.5V4.05C19.5 3.6735 19.3115 3.3355 18.9955 3.1445C18.692 2.962 18.324 2.952 18.013 3.116L13.3415 5.5775C12.812 5.8565 12.483 6.401 12.483 6.9995C12.4825 7.598 12.8115 8.1435 13.3415 8.423L18.0125 10.884C18.16 10.9615 18.32 11 18.4795 11C18.6575 11 18.8355 10.9515 18.9955 10.8555C19.3115 10.6645 19.5 10.3265 19.5 9.95V8.5H25.5C25.776 8.5 26 8.724 26 9V23C26 23.276 25.776 23.5 25.5 23.5H22.5C21.9485 23.5 21.5 23.9485 21.5 24.5V25.5C21.5 26.0515 21.9485 26.5 22.5 26.5H25.5C27.4295 26.5 29 24.9295 29 23V9C29 7.0705 27.4295 5.5 25.5 5.5ZM18.5 9.95C18.5 9.989 18.479 9.999 18.479 9.999L13.808 7.538C13.6045 7.431 13.4835 7.2295 13.4835 7C13.4835 6.7705 13.6045 6.5695 13.8075 6.4625L18.476 3.9995C18.4765 3.9995 18.5 4.0085 18.5 4.05V9.95ZM28 23C28 24.3785 26.8785 25.5 25.5 25.5H22.5V24.5H25.5C26.327 24.5 27 23.827 27 23V9C27 8.173 26.327 7.5 25.5 7.5H19.5V6.5H25.5C26.8785 6.5 28 7.6215 28 9V23Z" fill="url(#paint3_linear)"/>
<defs>
<linearGradient id="paint0_linear" x1="16.0085" y1="21.125" x2="16.0085" y2="28.01" gradientUnits="userSpaceOnUse">
<stop stop-color="#6DC7FF"/>
<stop offset="1" stop-color="#E6ABFF"/>
</linearGradient>
<linearGradient id="paint1_linear" x1="15.9915" y1="2.5" x2="15.9915" y2="11.4065" gradientUnits="userSpaceOnUse">
<stop stop-color="#6DC7FF"/>
<stop offset="1" stop-color="#E6ABFF"/>
</linearGradient>
<linearGradient id="paint2_linear" x1="11.2585" y1="2.375" x2="11.2585" y2="28.8575" gradientUnits="userSpaceOnUse">
<stop stop-color="#1A6DFF"/>
<stop offset="1" stop-color="#C822FF"/>
</linearGradient>
<linearGradient id="paint3_linear" x1="20.7415" y1="2.375" x2="20.7415" y2="28.8575" gradientUnits="userSpaceOnUse">
<stop stop-color="#1A6DFF"/>
<stop offset="1" stop-color="#C822FF"/>
</linearGradient>
</defs>
</svg>
