<svg xmlns="http://www.w3.org/2000/svg" xmlns:xlink="http://www.w3.org/1999/xlink" viewBox="0 0 64 64"><linearGradient id="9pctsyZdzgEDv_YASu7L0a" x1="24.511" x2="26.011" y1="1992.73" y2="1938.223" gradientTransform="matrix(1 0 0 -1 0 1998)" gradientUnits="userSpaceOnUse"><stop offset="0" stop-color="#1a6dff"/><stop offset="1" stop-color="#c822ff"/></linearGradient><path fill="url(#9pctsyZdzgEDv_YASu7L0a)" d="M24.999,10c-7.169,0-13.002,5.832-13.002,13.002s5.833,13.002,13.002,13.002s13.002-5.832,13.002-13.002S32.168,10,24.999,10z M24.999,34.003c-6.066,0-11.001-4.935-11.001-11.001s4.935-11.001,11.001-11.001S36,16.936,36,23.002S31.065,34.003,24.999,34.003z"/><linearGradient id="9pctsyZdzgEDv_YASu7L0b" x1="31.109" x2="32.609" y1="1992.911" y2="1938.405" gradientTransform="matrix(1 0 0 -1 0 1998)" gradientUnits="userSpaceOnUse"><stop offset="0" stop-color="#1a6dff"/><stop offset="1" stop-color="#c822ff"/></linearGradient><path fill="url(#9pctsyZdzgEDv_YASu7L0b)" d="M54.77,48.559l-8.752-9.864c-0.719-0.812-1.995-0.92-2.845-0.243l-2.486,1.973l-4.125-4.994c3.337-3.106,5.439-7.521,5.439-12.429C42.001,13.627,34.374,6,24.999,6S7.997,13.627,7.997,23.002s7.627,17.002,17.002,17.002c3.749,0,7.207-1.234,10.021-3.298l4.099,4.963l-2.366,1.877c-0.434,0.344-0.698,0.832-0.746,1.374c-0.047,0.539,0.127,1.06,0.49,1.469l8.753,9.865C46.272,57.406,47.739,58,49.215,58c1.169,0,2.344-0.373,3.307-1.137l1.607-1.274c1.08-0.858,1.739-2.068,1.856-3.406C56.1,50.859,55.669,49.572,54.77,48.559z M9.997,23.002C9.997,14.73,16.727,8,24.999,8s15.002,6.73,15.002,15.002s-6.729,15.002-15.002,15.002S9.997,31.274,9.997,23.002z M48.642,44.666l-6.467,5.133l-1.477-1.656l6.472-5.136L48.642,44.666z M44.418,40.018c0.013-0.01,0.03-0.014,0.049-0.014c0.022,0,0.045,0.007,0.055,0.018l1.319,1.487l-6.476,5.139l-1.368-1.534L44.418,40.018z M52.885,54.022l-1.607,1.274c-1.361,1.081-3.394,0.915-4.532-0.369l-3.239-3.632l6.464-5.13l3.303,3.722c0.53,0.598,0.785,1.351,0.718,2.122C53.924,52.795,53.53,53.51,52.885,54.022z"/><linearGradient id="9pctsyZdzgEDv_YASu7L0c" x1="24.999" x2="24.999" y1="19.192" y2="26.596" gradientUnits="userSpaceOnUse"><stop offset="0" stop-color="#6dc7ff"/><stop offset="1" stop-color="#e6abff"/></linearGradient><path fill="url(#9pctsyZdzgEDv_YASu7L0c)" d="M28.661,17c-1.844,0-3.366,1.342-3.62,3.086h-0.083C24.703,18.342,23.181,17,21.337,17c-2.023,0-3.662,1.612-3.662,3.601c0,4.072,3.793,6.812,5.92,8.029c0.873,0.499,1.935,0.499,2.808,0c2.127-1.216,5.92-3.956,5.92-8.029C32.323,18.612,30.684,17,28.661,17z"/></svg>