<svg width="32" height="32" viewBox="0 0 32 32" fill="none" xmlns="http://www.w3.org/2000/svg">
<circle cx="16" cy="16" r="16" fill="#BED6FF"/>
<path d="M24 13.081V6.91899C24 6.60799 24.303 6.40549 24.5605 6.54499L29.572 9.25199C30.1425 9.55999 30.1425 10.44 29.572 10.7485L24.5605 13.455C24.303 13.594 24 13.392 24 13.081Z" fill="url(#paint0_linear)"/>
<path d="M24 25.081V18.919C24 18.608 24.303 18.4055 24.5605 18.545L29.572 21.252C30.1425 21.56 30.1425 22.44 29.572 22.7485L24.5605 25.455C24.303 25.594 24 25.392 24 25.081Z" fill="url(#paint1_linear)"/>
<path d="M29.8095 20.812L24.7985 18.105C24.5275 17.959 24.2085 17.9655 23.9445 18.123C23.666 18.289 23.5 18.5865 23.5 18.919V20.5L17.829 20.477L14.9515 16.263L18.345 11.5H23.5V13.081C23.5 13.4135 23.666 13.711 23.9445 13.877C24.082 13.959 24.234 14 24.387 14C24.5275 14 24.6685 13.965 24.798 13.895L29.8095 11.188C30.2355 10.958 30.5 10.503 30.5 9.99999C30.5 9.49699 30.2355 9.04199 29.8095 8.81199L24.7985 6.10499C24.5275 5.95949 24.2085 5.96599 23.9445 6.12299C23.666 6.28899 23.5 6.58649 23.5 6.91899V8.49999H17.2195C16.872 8.49999 16.544 8.68449 16.3835 8.95099L13.1025 13.556L9.6365 8.48149C9.456 8.18449 9.128 7.99999 8.7805 7.99999H2.5C1.9485 7.99999 1.5 8.44849 1.5 8.99999V9.99999C1.5 10.5515 1.9485 11 2.5 11L7.671 11.0235L11.2125 16.209L8.155 20.5H2.5015C1.949 20.5 1.5 20.949 1.5 21.5015V22.4985C1.5 23.0505 1.949 23.5 2.5015 23.5H9.2805C9.628 23.5 9.956 23.3155 10.1165 23.049L13.061 18.916L15.8635 23.0185C16.044 23.3155 16.372 23.5 16.7195 23.5H23.5L23.4985 22.5L16.7035 22.4765L13.679 18.0485L14.333 17.1305L16.9885 21.019C17.1695 21.3155 17.4975 21.5 17.845 21.5H23.5V23.5V25.081C23.5 25.4135 23.666 25.711 23.9445 25.877C24.082 25.959 24.234 26 24.387 26C24.5275 26 24.6685 25.965 24.798 25.895L29.8095 23.188C30.2355 22.958 30.5 22.503 30.5 22C30.5 21.497 30.2355 21.042 29.8095 20.812ZM24.5 7.08049L29.3345 9.69199C29.488 9.77499 29.5 9.94849 29.5 9.99999C29.5 10.0515 29.488 10.225 29.3345 10.308L24.5 12.9195V7.08049ZM8.511 10.4815C8.3305 10.1845 8.0025 9.99999 7.655 9.99999H2.5V8.99999L8.7965 9.02299L12.4845 14.4235L11.831 15.341L8.511 10.4815ZM9.2805 22.5L2.5 22.4985L2.5015 21.5H8.155C8.5025 21.5 8.8305 21.3155 8.991 21.049L17.2195 9.49999H23.5V10.5H18.345C17.9975 10.5 17.6695 10.6845 17.509 10.951L9.2805 22.5ZM29.3345 22.308L24.5 24.9195V19.0805L29.3345 21.692C29.488 21.7745 29.5 21.9485 29.5 22C29.5 22.0515 29.488 22.225 29.3345 22.308Z" fill="url(#paint2_linear)"/>
<defs>
<linearGradient id="paint0_linear" x1="27" y1="6.49999" x2="27" y2="13.75" gradientUnits="userSpaceOnUse">
<stop stop-color="#6DC7FF"/>
<stop offset="1" stop-color="#E6ABFF"/>
</linearGradient>
<linearGradient id="paint1_linear" x1="27" y1="17.75" x2="27" y2="25.629" gradientUnits="userSpaceOnUse">
<stop stop-color="#6DC7FF"/>
<stop offset="1" stop-color="#E6ABFF"/>
</linearGradient>
<linearGradient id="paint2_linear" x1="16" y1="6.62499" x2="16" y2="24.8765" gradientUnits="userSpaceOnUse">
<stop stop-color="#1A6DFF"/>
<stop offset="1" stop-color="#C822FF"/>
</linearGradient>
</defs>
</svg>
