<svg xmlns="http://www.w3.org/2000/svg" xmlns:xlink="http://www.w3.org/1999/xlink" viewBox="0 0 64 64"><linearGradient id="bXYsyzizBoZICM~ktlqIGa" x1="54" x2="54" y1="13" y2="27.5" gradientUnits="userSpaceOnUse" spreadMethod="reflect"><stop offset="0" stop-color="#6dc7ff"/><stop offset="1" stop-color="#e6abff"/></linearGradient><path fill="url(#bXYsyzizBoZICM~ktlqIGa)" d="M48,26.162V13.838c0-0.622,0.606-1.027,1.121-0.748l10.023,5.414 c1.141,0.616,1.141,2.376,0,2.993L49.121,26.91C48.606,27.188,48,26.784,48,26.162z"/><linearGradient id="bXYsyzizBoZICM~ktlqIGb" x1="54" x2="54" y1="35.5" y2="51.258" gradientUnits="userSpaceOnUse" spreadMethod="reflect"><stop offset="0" stop-color="#6dc7ff"/><stop offset="1" stop-color="#e6abff"/></linearGradient><path fill="url(#bXYsyzizBoZICM~ktlqIGb)" d="M48,50.162V37.838c0-0.622,0.606-1.027,1.121-0.748l10.023,5.414 c1.141,0.616,1.141,2.376,0,2.993L49.121,50.91C48.606,51.188,48,50.784,48,50.162z"/><linearGradient id="bXYsyzizBoZICM~ktlqIGc" x1="32" x2="32" y1="13.25" y2="49.753" gradientUnits="userSpaceOnUse" spreadMethod="reflect"><stop offset="0" stop-color="#1a6dff"/><stop offset="1" stop-color="#c822ff"/></linearGradient><path fill="url(#bXYsyzizBoZICM~ktlqIGc)" d="M59.619,41.624L49.597,36.21c-0.542-0.292-1.18-0.279-1.708,0.036 C47.332,36.578,47,37.173,47,37.838V41l-11.342-0.046l-5.755-8.428L36.69,23H47v3.162c0,0.665,0.332,1.26,0.889,1.592 C48.164,27.918,48.468,28,48.774,28c0.281,0,0.563-0.07,0.822-0.21l10.023-5.414C60.471,21.916,61,21.006,61,20 s-0.529-1.916-1.381-2.376L49.597,12.21c-0.542-0.291-1.18-0.278-1.708,0.036C47.332,12.578,47,13.173,47,13.838V17H34.439 c-0.695,0-1.351,0.369-1.672,0.902l-6.562,9.21l-6.932-10.149C18.912,16.369,18.256,16,17.561,16H5c-1.103,0-2,0.897-2,2v2 c0,1.103,0.897,2,2,2l10.342,0.047l7.083,10.371L16.31,41H5.003C3.898,41,3,41.898,3,43.003v1.994C3,46.101,3.898,47,5.003,47 h13.558c0.695,0,1.351-0.369,1.672-0.902l5.889-8.266l5.605,8.205C32.088,46.631,32.744,47,33.439,47H47l-0.003-2l-13.59-0.047 l-6.049-8.856l1.308-1.836l5.311,7.777C34.339,42.631,34.995,43,35.69,43H47v4v3.162c0,0.665,0.332,1.26,0.889,1.592 C48.164,51.918,48.468,52,48.774,52c0.281,0,0.563-0.07,0.822-0.21l10.023-5.414C60.471,45.916,61,45.006,61,44 S60.471,42.084,59.619,41.624z M49,14.161l9.669,5.223C58.976,19.55,59,19.897,59,20s-0.024,0.45-0.331,0.616L49,25.839V14.161z M17.022,20.963C16.661,20.369,16.005,20,15.31,20H5v-2l12.593,0.046l7.376,10.801l-1.307,1.835L17.022,20.963z M18.561,45L5,44.997 L5.003,43H16.31c0.695,0,1.351-0.369,1.672-0.902L34.439,19H47v2H36.69c-0.695,0-1.351,0.369-1.672,0.902L18.561,45z M58.669,44.616 L49,49.839V38.161l9.669,5.223C58.976,43.549,59,43.897,59,44S58.976,44.45,58.669,44.616z"/></svg>