<svg xmlns="http://www.w3.org/2000/svg" xmlns:xlink="http://www.w3.org/1999/xlink" viewBox="0 0 64 64"><linearGradient id="E9zP8urd7pFVZXDyCtm5Qa" x1="16.5" x2="16.5" y1="12.489" y2="49.639" gradientUnits="userSpaceOnUse"><stop offset="0" stop-color="#6dc7ff"/><stop offset="1" stop-color="#e6abff"/></linearGradient><path fill="url(#E9zP8urd7pFVZXDyCtm5Qa)" d="M15,50.245v-36.49C15,13.338,15.338,13,15.755,13h1.49C17.662,13,18,13.338,18,13.755v36.49 C18,50.662,17.662,51,17.245,51h-1.49C15.338,51,15,50.662,15,50.245z"/><linearGradient id="E9zP8urd7pFVZXDyCtm5Qb" x1="38.757" x2="38.757" y1="18.489" y2="40.58" gradientUnits="userSpaceOnUse"><stop offset="0" stop-color="#6dc7ff"/><stop offset="1" stop-color="#e6abff"/></linearGradient><path fill="url(#E9zP8urd7pFVZXDyCtm5Qb)" d="M47.274,46.738L29.41,33.752c-1.194-0.868-1.194-2.649,0-3.517l17.864-12.986 C47.992,16.726,49,17.239,49,18.127v27.731C49,46.747,47.992,47.26,47.274,46.738z"/><linearGradient id="E9zP8urd7pFVZXDyCtm5Qc" x1="32" x2="32" y1="8.277" y2="53.744" gradientUnits="userSpaceOnUse"><stop offset="0" stop-color="#1a6dff"/><stop offset="1" stop-color="#c822ff"/></linearGradient><path fill="url(#E9zP8urd7pFVZXDyCtm5Qc)" d="M52.424,8.299c-0.972-0.489-2.118-0.389-2.99,0.261L24.405,27.179c-0.603,0.448-1.101,0.993-1.488,1.602V10.992c0-1.65-1.343-2.992-2.993-2.992h-6.932C11.343,8,10,9.342,10,10.992v42.016C10,54.658,11.343,56,12.992,56h6.932c1.65,0,2.993-1.342,2.993-2.992V35.204c0.388,0.609,0.885,1.154,1.488,1.603l25.028,18.619c0.505,0.376,1.102,0.568,1.704,0.568c0.438,0,0.877-0.101,1.286-0.307C53.396,55.199,54,54.219,54,53.131V10.855C54,9.767,53.396,8.788,52.424,8.299z M20.917,53.008c0,0.547-0.445,0.992-0.993,0.992h-6.932C12.445,54,12,53.555,12,53.008V10.992C12,10.445,12.445,10,12.992,10h6.932c0.548,0,0.993,0.445,0.993,0.992V53.008z M52,53.131c0,0.479-0.331,0.697-0.474,0.769c-0.144,0.071-0.517,0.206-0.899-0.079L25.599,35.203c-1.024-0.763-1.612-1.933-1.612-3.21c0-1.277,0.588-2.447,1.612-3.209l25.028-18.619c0.385-0.287,0.756-0.149,0.899-0.078C51.668,10.158,52,10.376,52,10.855V53.131z"/></svg>